# This file uses centimeters as units for non-parametric coordinates.

mtllib Ramp.mtl
g default
v -2.000000 2.000000 11.000000
v 2.000000 2.000000 11.000000
v -2.000000 3.000000 11.000000
v 2.000000 3.000000 11.000000
v -2.000000 4.500000 16.500000
v 2.000000 4.500000 16.500000
v 2.000000 5.500000 16.500000
v -2.000000 5.500000 16.500000
v -2.000000 4.500000 19.000000
v 2.000000 4.500000 19.000000
v 2.000000 5.500000 19.000000
v -2.000000 5.500000 19.000000
v -2.000000 -0.500000 3.000000
v 2.000000 -0.500000 3.000000
v -2.000000 0.500000 3.000000
v 2.000000 0.500000 3.000000
v -2.000000 0.500000 -0.500000
v 2.000000 0.500000 -0.500000
v -2.000000 -0.500000 -0.500000
v 2.000000 -0.500000 -0.500000
v -2.000000 2.000000 8.500000
v 2.000000 2.000000 8.500000
v 2.000000 3.000000 8.500000
v -2.000000 3.000000 8.500000
vt -1.500000 -2.520619
vt 2.500000 -2.520619
vt 2.500000 -2.520619
vt -1.500000 -2.520619
vt 2.500000 3.520619
vt -1.500000 3.520619
vt -1.500000 3.520619
vt 2.500000 3.520619
vt -1.500000 0.000000
vt 2.500000 0.000000
vt 2.500000 1.000000
vt -1.500000 1.000000
vt 3.250000 -1.496722
vt 3.250000 -0.496722
vt -2.250000 2.003278
vt -2.250000 1.003278
vt 3.250000 -0.496722
vt 3.250000 -1.496722
vt -2.250000 1.003278
vt -2.250000 2.003278
vt 1.750000 0.000000
vt 1.750000 1.000000
vt -0.750000 1.000000
vt -0.750000 0.000000
vt 1.750000 1.000000
vt 1.750000 0.000000
vt -0.750000 0.000000
vt -0.750000 1.000000
vt 2.500000 -0.750000
vt -1.500000 -0.750000
vt -1.500000 1.750000
vt 2.500000 1.750000
vt -1.500000 -0.750000
vt 2.500000 -0.750000
vt 2.500000 1.750000
vt -1.500000 1.750000
vt -1.500000 0.000000
vt 2.500000 0.000000
vt 2.500000 1.000000
vt -1.500000 1.000000
vt -1.500000 2.250000
vt 2.500000 2.250000
vt 2.500000 -1.250000
vt -1.500000 -1.250000
vt -1.500000 1.000000
vt 2.500000 1.000000
vt 2.500000 0.000000
vt -1.500000 0.000000
vt -1.500000 -1.250000
vt 2.500000 -1.250000
vt 2.500000 2.250000
vt -1.500000 2.250000
vt -1.250000 0.000000
vt 2.250000 0.000000
vt 2.250000 1.000000
vt -1.250000 1.000000
vt 2.250000 0.000000
vt -1.250000 0.000000
vt -1.250000 1.000000
vt 2.250000 1.000000
vt -1.500000 -2.520619
vt 2.500000 -2.520619
vt 2.500000 3.520619
vt -1.500000 3.520619
vt 3.250000 -1.496722
vt 3.250000 -0.496722
vt -2.250000 2.003278
vt -2.250000 1.003278
vt 2.500000 -2.520619
vt -1.500000 -2.520619
vt -1.500000 3.520619
vt 2.500000 3.520619
vt 3.250000 -0.496722
vt 3.250000 -1.496722
vt -2.250000 1.003278
vt -2.250000 2.003278
vt -1.500000 -0.750000
vt 2.500000 -0.750000
vt 2.500000 1.750000
vt -1.500000 1.750000
vt 1.750000 0.000000
vt 1.750000 1.000000
vt -0.750000 1.000000
vt -0.750000 0.000000
vt 2.500000 -0.750000
vt -1.500000 -0.750000
vt -1.500000 1.750000
vt 2.500000 1.750000
vt 1.750000 1.000000
vt 1.750000 0.000000
vt -0.750000 0.000000
vt -0.750000 1.000000
vn 0.000000 0.000000 1.000000
vn 0.000000 0.000000 1.000000
vn 0.000000 0.000000 1.000000
vn 0.000000 0.000000 1.000000
vn 0.000000 -0.910366 0.413803
vn 0.000000 -0.910366 0.413803
vn 0.000000 -0.910366 0.413803
vn 0.000000 -0.910366 0.413803
vn 1.000000 0.000000 0.000000
vn 1.000000 0.000000 0.000000
vn 1.000000 0.000000 0.000000
vn 1.000000 0.000000 0.000000
vn 0.000000 0.910366 -0.413803
vn 0.000000 0.910367 -0.413803
vn 0.000000 0.910366 -0.413803
vn 0.000000 0.910366 -0.413803
vn -1.000000 0.000000 0.000000
vn -1.000000 0.000000 0.000000
vn -1.000000 0.000000 0.000000
vn -1.000000 0.000000 0.000000
vn 0.000000 -1.000000 0.000000
vn 0.000000 -1.000000 0.000000
vn 0.000000 -1.000000 0.000000
vn 0.000000 -1.000000 0.000000
vn 1.000000 0.000000 0.000000
vn 1.000000 0.000000 0.000000
vn 1.000000 0.000000 0.000000
vn 1.000000 0.000000 0.000000
vn 0.000000 1.000000 0.000000
vn 0.000000 1.000000 0.000000
vn 0.000000 1.000000 0.000000
vn 0.000000 1.000000 0.000000
vn -1.000000 0.000000 0.000000
vn -1.000000 0.000000 0.000000
vn -1.000000 0.000000 0.000000
vn -1.000000 0.000000 0.000000
vn 0.000000 0.000000 1.000000
vn 0.000000 0.000000 1.000000
vn 0.000000 0.000000 1.000000
vn 0.000000 0.000000 1.000000
vn 0.000000 1.000000 0.000000
vn 0.000000 1.000000 0.000000
vn 0.000000 1.000000 0.000000
vn 0.000000 1.000000 0.000000
vn 0.000000 0.000000 -1.000000
vn 0.000000 0.000000 -1.000000
vn 0.000000 0.000000 -1.000000
vn 0.000000 0.000000 -1.000000
vn 0.000000 -1.000000 0.000000
vn 0.000000 -1.000000 0.000000
vn 0.000000 -1.000000 0.000000
vn 0.000000 -1.000000 0.000000
vn 1.000000 0.000000 0.000000
vn 1.000000 0.000000 0.000000
vn 1.000000 0.000000 0.000000
vn 1.000000 0.000000 0.000000
vn -1.000000 0.000000 0.000000
vn -1.000000 0.000000 0.000000
vn -1.000000 0.000000 0.000000
vn -1.000000 0.000000 0.000000
vn 0.000000 -0.910366 0.413803
vn 0.000000 -0.910366 0.413803
vn 0.000000 -0.910366 0.413803
vn 0.000000 -0.910366 0.413803
vn 1.000000 0.000000 0.000000
vn 1.000000 0.000000 0.000000
vn 1.000000 0.000000 0.000000
vn 1.000000 0.000000 0.000000
vn 0.000000 0.910366 -0.413803
vn 0.000000 0.910366 -0.413803
vn 0.000000 0.910366 -0.413803
vn 0.000000 0.910366 -0.413803
vn -1.000000 0.000000 0.000000
vn -1.000000 0.000000 0.000000
vn -1.000000 0.000000 0.000000
vn -1.000000 0.000000 0.000000
vn 0.000000 -1.000000 0.000000
vn 0.000000 -1.000000 0.000000
vn 0.000000 -1.000000 0.000000
vn 0.000000 -1.000000 0.000000
vn 1.000000 0.000000 0.000000
vn 1.000000 0.000000 0.000000
vn 1.000000 0.000000 0.000000
vn 1.000000 0.000000 0.000000
vn 0.000000 1.000000 0.000000
vn 0.000000 1.000000 -0.000000
vn 0.000000 1.000000 -0.000000
vn 0.000000 1.000000 -0.000000
vn -1.000000 0.000000 0.000000
vn -1.000000 0.000000 0.000000
vn -1.000000 0.000000 0.000000
vn -1.000000 0.000000 0.000000
s 1
g pCube5
usemtl initialShadingGroup
f 9/9/1 10/10/2 12/12/3
f 12/12/3 10/10/2 11/11/4
s 2
f 1/1/5 2/2/6 5/6/7
f 5/6/7 2/2/6 6/5/8
s 3
f 2/13/9 4/14/10 6/16/11
f 6/16/11 4/14/10 7/15/12
s 4
f 4/3/13 3/4/14 7/8/15
f 7/8/15 3/4/14 8/7/16
s 5
f 1/18/17 5/19/18 3/17/19
f 3/17/19 5/19/18 8/20/20
s 6
f 5/33/21 6/34/22 9/36/23
f 9/36/23 6/34/22 10/35/24
s 7
f 6/21/25 7/22/26 10/24/27
f 10/24/27 7/22/26 11/23/28
s 8
f 7/29/29 8/30/30 11/32/31
f 11/32/31 8/30/30 12/31/32
s 9
f 8/25/33 5/26/34 12/28/35
f 12/28/35 5/26/34 9/27/36
s 10
f 1/37/37 2/38/38 3/40/39
f 3/40/39 2/38/38 4/39/40
s 11
f 15/41/41 16/42/42 17/44/43
f 17/44/43 16/42/42 18/43/44
s 12
f 17/45/45 18/46/46 19/48/47
f 19/48/47 18/46/46 20/47/48
s 13
f 19/49/49 20/50/50 13/52/51
f 13/52/51 20/50/50 14/51/52
s 14
f 14/53/53 20/54/54 16/56/55
f 16/56/55 20/54/54 18/55/56
s 15
f 19/57/57 13/58/58 17/60/59
f 17/60/59 13/58/58 15/59/60
s 16
f 13/61/61 14/62/62 21/64/63
f 21/64/63 14/62/62 22/63/64
s 17
f 14/65/65 16/66/66 22/68/67
f 22/68/67 16/66/66 23/67/68
s 18
f 16/69/69 15/70/70 23/72/71
f 23/72/71 15/70/70 24/71/72
s 19
f 13/74/73 21/75/74 15/73/75
f 15/73/75 21/75/74 24/76/76
s 20
f 21/77/77 22/78/78 1/80/79
f 1/80/79 22/78/78 2/79/80
s 21
f 22/81/81 23/82/82 2/84/83
f 2/84/83 23/82/82 4/83/84
s 22
f 23/85/85 24/86/86 4/88/87
f 4/88/87 24/86/86 3/87/88
s 23
f 24/89/89 21/90/90 3/92/91
f 3/92/91 21/90/90 1/91/92
g default
v -2.000000 2.000000 11.000000
v 2.000000 2.000000 11.000000
v -2.000000 3.000000 11.000000
v 2.000000 3.000000 11.000000
v -2.000000 4.500000 16.500000
v 2.000000 4.500000 16.500000
v 2.000000 5.500000 16.500000
v -2.000000 5.500000 16.500000
v -2.000000 4.500000 19.000000
v 2.000000 4.500000 19.000000
v 2.000000 5.500000 19.000000
v -2.000000 5.500000 19.000000
v -2.000000 -0.500000 3.000000
v 2.000000 -0.500000 3.000000
v -2.000000 0.500000 3.000000
v 2.000000 0.500000 3.000000
v -2.000000 0.500000 -0.500000
v 2.000000 0.500000 -0.500000
v -2.000000 -0.500000 -0.500000
v 2.000000 -0.500000 -0.500000
v -2.000000 2.000000 8.500000
v 2.000000 2.000000 8.500000
v 2.000000 3.000000 8.500000
v -2.000000 3.000000 8.500000
vt -1.500000 -2.520619
vt 2.500000 -2.520619
vt 2.500000 -2.520619
vt -1.500000 -2.520619
vt 2.500000 3.520619
vt -1.500000 3.520619
vt -1.500000 3.520619
vt 2.500000 3.520619
vt -1.500000 0.000000
vt 2.500000 0.000000
vt 2.500000 1.000000
vt -1.500000 1.000000
vt 3.250000 -1.496722
vt 3.250000 -0.496722
vt -2.250000 2.003278
vt -2.250000 1.003278
vt 3.250000 -0.496722
vt 3.250000 -1.496722
vt -2.250000 1.003278
vt -2.250000 2.003278
vt 1.750000 0.000000
vt 1.750000 1.000000
vt -0.750000 1.000000
vt -0.750000 0.000000
vt 1.750000 1.000000
vt 1.750000 0.000000
vt -0.750000 0.000000
vt -0.750000 1.000000
vt 2.500000 -0.750000
vt -1.500000 -0.750000
vt -1.500000 1.750000
vt 2.500000 1.750000
vt -1.500000 -0.750000
vt 2.500000 -0.750000
vt 2.500000 1.750000
vt -1.500000 1.750000
vt -1.500000 0.000000
vt 2.500000 0.000000
vt 2.500000 1.000000
vt -1.500000 1.000000
vt -1.500000 2.250000
vt 2.500000 2.250000
vt 2.500000 -1.250000
vt -1.500000 -1.250000
vt -1.500000 1.000000
vt 2.500000 1.000000
vt 2.500000 0.000000
vt -1.500000 0.000000
vt -1.500000 -1.250000
vt 2.500000 -1.250000
vt 2.500000 2.250000
vt -1.500000 2.250000
vt -1.250000 0.000000
vt 2.250000 0.000000
vt 2.250000 1.000000
vt -1.250000 1.000000
vt 2.250000 0.000000
vt -1.250000 0.000000
vt -1.250000 1.000000
vt 2.250000 1.000000
vt -1.500000 -2.520619
vt 2.500000 -2.520619
vt 2.500000 3.520619
vt -1.500000 3.520619
vt 3.250000 -1.496722
vt 3.250000 -0.496722
vt -2.250000 2.003278
vt -2.250000 1.003278
vt 2.500000 -2.520619
vt -1.500000 -2.520619
vt -1.500000 3.520619
vt 2.500000 3.520619
vt 3.250000 -0.496722
vt 3.250000 -1.496722
vt -2.250000 1.003278
vt -2.250000 2.003278
vt -1.500000 -0.750000
vt 2.500000 -0.750000
vt 2.500000 1.750000
vt -1.500000 1.750000
vt 1.750000 0.000000
vt 1.750000 1.000000
vt -0.750000 1.000000
vt -0.750000 0.000000
vt 2.500000 -0.750000
vt -1.500000 -0.750000
vt -1.500000 1.750000
vt 2.500000 1.750000
vt 1.750000 1.000000
vt 1.750000 0.000000
vt -0.750000 0.000000
vt -0.750000 1.000000
vn 0.000000 0.000000 1.000000
vn 0.000000 0.000000 1.000000
vn 0.000000 0.000000 1.000000
vn 0.000000 0.000000 1.000000
vn 0.000000 -0.910366 0.413803
vn 0.000000 -0.910366 0.413803
vn 0.000000 -0.910366 0.413803
vn 0.000000 -0.910366 0.413803
vn 1.000000 0.000000 0.000000
vn 1.000000 0.000000 0.000000
vn 1.000000 0.000000 0.000000
vn 1.000000 0.000000 0.000000
vn 0.000000 0.910366 -0.413803
vn 0.000000 0.910367 -0.413803
vn 0.000000 0.910366 -0.413803
vn 0.000000 0.910366 -0.413803
vn -1.000000 0.000000 0.000000
vn -1.000000 0.000000 0.000000
vn -1.000000 0.000000 0.000000
vn -1.000000 0.000000 0.000000
vn 0.000000 -1.000000 0.000000
vn 0.000000 -1.000000 0.000000
vn 0.000000 -1.000000 0.000000
vn 0.000000 -1.000000 0.000000
vn 1.000000 0.000000 0.000000
vn 1.000000 0.000000 0.000000
vn 1.000000 0.000000 0.000000
vn 1.000000 0.000000 0.000000
vn 0.000000 1.000000 0.000000
vn 0.000000 1.000000 0.000000
vn 0.000000 1.000000 0.000000
vn 0.000000 1.000000 0.000000
vn -1.000000 0.000000 0.000000
vn -1.000000 0.000000 0.000000
vn -1.000000 0.000000 0.000000
vn -1.000000 0.000000 0.000000
vn 0.000000 0.000000 1.000000
vn 0.000000 0.000000 1.000000
vn 0.000000 0.000000 1.000000
vn 0.000000 0.000000 1.000000
vn 0.000000 1.000000 0.000000
vn 0.000000 1.000000 0.000000
vn 0.000000 1.000000 0.000000
vn 0.000000 1.000000 0.000000
vn 0.000000 0.000000 -1.000000
vn 0.000000 0.000000 -1.000000
vn 0.000000 0.000000 -1.000000
vn 0.000000 0.000000 -1.000000
vn 0.000000 -1.000000 0.000000
vn 0.000000 -1.000000 0.000000
vn 0.000000 -1.000000 0.000000
vn 0.000000 -1.000000 0.000000
vn 1.000000 0.000000 0.000000
vn 1.000000 0.000000 0.000000
vn 1.000000 0.000000 0.000000
vn 1.000000 0.000000 0.000000
vn -1.000000 0.000000 0.000000
vn -1.000000 0.000000 0.000000
vn -1.000000 0.000000 0.000000
vn -1.000000 0.000000 0.000000
vn 0.000000 -0.910366 0.413803
vn 0.000000 -0.910366 0.413803
vn 0.000000 -0.910366 0.413803
vn 0.000000 -0.910366 0.413803
vn 1.000000 0.000000 0.000000
vn 1.000000 0.000000 0.000000
vn 1.000000 0.000000 0.000000
vn 1.000000 0.000000 0.000000
vn 0.000000 0.910366 -0.413803
vn 0.000000 0.910366 -0.413803
vn 0.000000 0.910366 -0.413803
vn 0.000000 0.910366 -0.413803
vn -1.000000 0.000000 0.000000
vn -1.000000 0.000000 0.000000
vn -1.000000 0.000000 0.000000
vn -1.000000 0.000000 0.000000
vn 0.000000 -1.000000 0.000000
vn 0.000000 -1.000000 0.000000
vn 0.000000 -1.000000 0.000000
vn 0.000000 -1.000000 0.000000
vn 1.000000 0.000000 0.000000
vn 1.000000 0.000000 0.000000
vn 1.000000 0.000000 0.000000
vn 1.000000 0.000000 0.000000
vn 0.000000 1.000000 0.000000
vn 0.000000 1.000000 -0.000000
vn 0.000000 1.000000 -0.000000
vn 0.000000 1.000000 -0.000000
vn -1.000000 0.000000 0.000000
vn -1.000000 0.000000 0.000000
vn -1.000000 0.000000 0.000000
vn -1.000000 0.000000 0.000000
s 1
g pCube5
f 33/101/93 34/102/94 36/104/95
f 36/104/95 34/102/94 35/103/96
s 2
f 25/93/97 26/94/98 29/98/99
f 29/98/99 26/94/98 30/97/100
s 3
f 26/105/101 28/106/102 30/108/103
f 30/108/103 28/106/102 31/107/104
s 4
f 28/95/105 27/96/106 31/100/107
f 31/100/107 27/96/106 32/99/108
s 5
f 25/110/109 29/111/110 27/109/111
f 27/109/111 29/111/110 32/112/112
s 6
f 29/125/113 30/126/114 33/128/115
f 33/128/115 30/126/114 34/127/116
s 7
f 30/113/117 31/114/118 34/116/119
f 34/116/119 31/114/118 35/115/120
s 8
f 31/121/121 32/122/122 35/124/123
f 35/124/123 32/122/122 36/123/124
s 9
f 32/117/125 29/118/126 36/120/127
f 36/120/127 29/118/126 33/119/128
s 10
f 25/129/129 26/130/130 27/132/131
f 27/132/131 26/130/130 28/131/132
s 11
f 39/133/133 40/134/134 41/136/135
f 41/136/135 40/134/134 42/135/136
s 12
f 41/137/137 42/138/138 43/140/139
f 43/140/139 42/138/138 44/139/140
s 13
f 43/141/141 44/142/142 37/144/143
f 37/144/143 44/142/142 38/143/144
s 14
f 38/145/145 44/146/146 40/148/147
f 40/148/147 44/146/146 42/147/148
s 15
f 43/149/149 37/150/150 41/152/151
f 41/152/151 37/150/150 39/151/152
s 16
f 37/153/153 38/154/154 45/156/155
f 45/156/155 38/154/154 46/155/156
s 17
f 38/157/157 40/158/158 46/160/159
f 46/160/159 40/158/158 47/159/160
s 18
f 40/161/161 39/162/162 47/164/163
f 47/164/163 39/162/162 48/163/164
s 19
f 37/166/165 45/167/166 39/165/167
f 39/165/167 45/167/166 48/168/168
s 20
f 45/169/169 46/170/170 25/172/171
f 25/172/171 46/170/170 26/171/172
s 21
f 46/173/173 47/174/174 26/176/175
f 26/176/175 47/174/174 28/175/176
s 22
f 47/177/177 48/178/178 28/180/179
f 28/180/179 48/178/178 27/179/180
s 23
f 48/181/181 45/182/182 27/184/183
f 27/184/183 45/182/182 25/183/184
